<svg width="512" height="512" version="1.1" xmlns="http://www.w3.org/2000/svg" desc="Created with imagetracer.js version 1.2.6" ><path fill="rgb(254,253,253)" stroke="rgb(254,253,253)" stroke-width="1" opacity="1" d="M 252.5 54 Q 259.3 52.2 261 55.5 L 265 67.5 L 265 73.5 L 268 88.5 L 268 96.5 L 272 119.5 L 272 126.5 L 281 171.5 L 286 187.5 L 292 200.5 Q 296.9 210.1 305.5 216 L 320.5 224 L 349.5 233 Q 360.5 233.5 368.5 237 L 396.5 240 L 402.5 242 L 441.5 246 L 454.5 249 L 460 254.5 Q 459.6 260.1 455.5 262 L 445.5 265 L 438.5 265 L 437.5 266 L 422.5 267 L 393.5 272 L 378.5 273 L 340.5 281 L 319.5 288 Q 307.3 292.8 299 301.5 Q 291.5 310 287 321.5 L 280 343.5 L 272 385.5 L 272 392.5 L 269 407.5 L 265 444.5 L 263 452.5 L 258.5 459 Q 252.7 459.8 251 456.5 L 247 444.5 L 239 379.5 L 230 336.5 L 219 309.5 L 209.5 298 L 192.5 288 L 167.5 280 L 126.5 272 L 119.5 272 L 111.5 270 L 90.5 268 L 89.5 267 L 67.5 265 L 58.5 263 L 53 258.5 Q 51.5 252.5 54.5 251 L 60.5 248 L 70.5 246 L 86.5 245 L 94.5 243 L 109.5 242 L 115.5 240 L 130.5 239 L 174.5 230 L 191.5 224 L 203.5 218 L 216 206.5 L 227 184.5 L 234 159.5 L 234 154.5 L 236 149.5 L 240 118.5 L 242 111.5 L 246 73.5 L 248 67.5 L 248 62.5 L 252.5 54 Z " /><path fill="rgb(254,253,253)" stroke="rgb(254,253,253)" stroke-width="1" opacity="1" d="M 117.5 98 L 129.5 98 L 136 101 Q 134.9 103.7 137.5 103 Q 143.7 108.3 142 121.5 Q 139.8 128.3 134.5 132 Q 129.7 136.2 119.5 135 Q 112.1 132.9 108 127.5 Q 103.3 122.7 105 111.5 Q 107.6 104.1 113.5 100 L 117.5 98 Z " /><path fill="rgb(195,15,27)" stroke="rgb(195,15,27)" stroke-width="1" opacity="0.996078431372549" d="M 174.5 0 L 185 0.5 L 174.5 1 L 174.5 0 Z " /><path fill="rgb(195,15,27)" stroke="rgb(195,15,27)" stroke-width="1" opacity="0.996078431372549" d="M 327.5 0 L 338 0.5 L 327.5 1 L 327.5 0 Z " /><path fill="rgb(195,15,27)" stroke="rgb(195,15,27)" stroke-width="1" opacity="0.996078431372549" d="M 166.5 1 L 172 1.5 L 166.5 2 L 166.5 1 Z " /><path fill="rgb(195,15,27)" stroke="rgb(195,15,27)" stroke-width="1" opacity="0.996078431372549" d="M 340.5 1 L 346 1.5 L 340.5 2 L 340.5 1 Z " /><path fill="rgb(195,15,27)" stroke="rgb(195,15,27)" stroke-width="1" opacity="0.996078431372549" d="M 160.5 2 L 165 2.5 L 144.5 7 L 144.5 6 L 160.5 2 Z " /><path fill="rgb(195,15,27)" stroke="rgb(195,15,27)" stroke-width="1" opacity="0.996078431372549" d="M 347.5 2 Q 359.4 2.6 368 6.5 L 365.5 7 Q 358.1 3.3 347.5 3 L 347.5 2 Z " /><path fill="rgb(195,15,27)" stroke="rgb(195,15,27)" stroke-width="1" opacity="0.996078431372549" d="M 140.5 7 L 143 7.5 Q 86 26 51 66.5 Q 21.8 97.3 7.5 143 L 7 140.5 Q 26.9 82.4 69.5 47 Q 98.8 20.8 140.5 7 Z " /><path fill="rgb(195,15,27)" stroke="rgb(195,15,27)" stroke-width="1" opacity="0.996078431372549" d="M 369.5 7 Q 397.5 14.5 418.5 29 Q 444.9 46.1 465 69.5 Q 491.9 99.1 505 142.5 L 504 142.5 L 496 119.5 L 483 95.5 Q 467 70.5 445.5 51 Q 430.1 36.9 411.5 26 Q 393.1 14.4 369.5 8 L 369.5 7 Z " /><path fill="rgb(195,15,27)" stroke="rgb(195,15,27)" stroke-width="1" opacity="0.996078431372549" d="M 118.5 97 L 121 97.5 L 118.5 98 L 118.5 97 Z " /><path fill="rgb(195,15,27)" stroke="rgb(195,15,27)" stroke-width="1" opacity="0.996078431372549" d="M 126.5 97 L 130 97.5 L 126.5 98 L 126.5 97 Z " /><path fill="rgb(195,15,27)" stroke="rgb(195,15,27)" stroke-width="1" opacity="0.996078431372549" d="M 113.5 99 L 112.5 101 L 113.5 99 Z " /><path fill="rgb(195,15,27)" stroke="rgb(195,15,27)" stroke-width="1" opacity="0.996078431372549" d="M 135.5 100 L 138.5 104 L 135.5 100 Z " /><path fill="rgb(195,15,27)" stroke="rgb(195,15,27)" stroke-width="1" opacity="0.996078431372549" d="M 108.5 104 L 107.5 106 L 108.5 104 Z " /><path fill="rgb(195,15,27)" stroke="rgb(195,15,27)" stroke-width="1" opacity="0.996078431372549" d="M 139.5 105 L 140.5 107 L 139.5 105 Z " /><path fill="rgb(195,15,27)" stroke="rgb(195,15,27)" stroke-width="1" opacity="0.996078431372549" d="M 142.5 111 L 143 113.5 L 142 113.5 L 142.5 111 Z " /><path fill="rgb(195,15,27)" stroke="rgb(195,15,27)" stroke-width="1" opacity="0.996078431372549" d="M 104.5 113 L 105 119.5 L 104 119.5 L 104.5 113 Z " /><path fill="rgb(195,15,27)" stroke="rgb(195,15,27)" stroke-width="1" opacity="0.996078431372549" d="M 142.5 118 L 143 120.5 L 142 120.5 L 142.5 118 Z " /><path fill="rgb(195,15,27)" stroke="rgb(195,15,27)" stroke-width="1" opacity="0.996078431372549" d="M 139.5 127 L 134.5 133 L 139.5 127 Z " /><path fill="rgb(195,15,27)" stroke="rgb(195,15,27)" stroke-width="1" opacity="0.996078431372549" d="M 108.5 128 L 111.5 132 L 108.5 128 Z " /><path fill="rgb(195,15,27)" stroke="rgb(195,15,27)" stroke-width="1" opacity="0.996078431372549" d="M 113.5 132 L 116 133.5 L 114.5 134 L 113.5 132 Z " /><path fill="rgb(195,15,27)" stroke="rgb(195,15,27)" stroke-width="1" opacity="0.996078431372549" d="M 120.5 135 L 128 135.5 L 120.5 136 L 120.5 135 Z " /><path fill="rgb(195,15,27)" stroke="rgb(195,15,27)" stroke-width="1" opacity="0.996078431372549" d="M 6.5 144 L 7 146.5 L 2.5 165 L 2 160.5 L 6.5 144 Z " /><path fill="rgb(195,15,27)" stroke="rgb(195,15,27)" stroke-width="1" opacity="0.996078431372549" d="M 505.5 144 Q 509.4 152.6 510 164.5 L 509 164.5 L 505.5 144 Z " /><path fill="rgb(195,15,27)" stroke="rgb(195,15,27)" stroke-width="1" opacity="0.996078431372549" d="M 1.5 166 L 2 171.5 L 1 171.5 L 1.5 166 Z " /><path fill="rgb(195,15,27)" stroke="rgb(195,15,27)" stroke-width="1" opacity="0.996078431372549" d="M 510.5 166 L 511 171.5 L 510 171.5 L 510.5 166 Z " /><path fill="rgb(195,15,27)" stroke="rgb(195,15,27)" stroke-width="1" opacity="0.996078431372549" d="M 0.5 174 L 1 184.5 L 0 184.5 L 0.5 174 Z " /><path fill="rgb(195,15,27)" stroke="rgb(195,15,27)" stroke-width="1" opacity="0.996078431372549" d="M 511.5 174 L 512 184.5 L 511 184.5 L 511.5 174 Z " /><path fill="rgb(195,15,27)" stroke="rgb(195,15,27)" stroke-width="1" opacity="0.996078431372549" d="M 289.5 194 L 291 196.5 L 290 196.5 L 289.5 194 Z " /><path fill="rgb(195,15,27)" stroke="rgb(195,15,27)" stroke-width="1" opacity="0.996078431372549" d="M 291.5 198 L 292.5 200 L 291.5 198 Z " /><path fill="rgb(195,15,27)" stroke="rgb(195,15,27)" stroke-width="1" opacity="0.996078431372549" d="M 217.5 203 L 216.5 205 L 217.5 203 Z " /><path fill="rgb(195,15,27)" stroke="rgb(195,15,27)" stroke-width="1" opacity="0.996078431372549" d="M 297.5 207 L 300.5 211 L 297.5 207 Z " /><path fill="rgb(195,15,27)" stroke="rgb(195,15,27)" stroke-width="1" opacity="0.996078431372549" d="M 211.5 210 L 209.5 213 L 211.5 210 Z " /><path fill="rgb(195,15,27)" stroke="rgb(195,15,27)" stroke-width="1" opacity="0.996078431372549" d="M 303.5 213 L 305.5 216 L 303.5 213 Z " /><path fill="rgb(195,15,27)" stroke="rgb(195,15,27)" stroke-width="1" opacity="0.996078431372549" d="M 308.5 217 L 311 218.5 L 309.5 218 L 308.5 217 Z " /><path fill="rgb(195,15,27)" stroke="rgb(195,15,27)" stroke-width="1" opacity="0.996078431372549" d="M 456.5 250 L 458.5 253 L 456.5 250 Z " /><path fill="rgb(195,15,27)" stroke="rgb(195,15,27)" stroke-width="1" opacity="0.996078431372549" d="M 52.5 254 L 53 256.5 L 52 256.5 L 52.5 254 Z " /><path fill="rgb(195,15,27)" stroke="rgb(195,15,27)" stroke-width="1" opacity="0.996078431372549" d="M 53.5 259 L 55.5 262 L 53.5 259 Z " /><path fill="rgb(195,15,27)" stroke="rgb(195,15,27)" stroke-width="1" opacity="0.996078431372549" d="M 378.5 273 L 382 273.5 L 378.5 274 L 378.5 273 Z " /><path fill="rgb(195,15,27)" stroke="rgb(195,15,27)" stroke-width="1" opacity="0.996078431372549" d="M 319.5 288 L 318.5 290 L 319.5 288 Z " /><path fill="rgb(195,15,27)" stroke="rgb(195,15,27)" stroke-width="1" opacity="0.996078431372549" d="M 209.5 298 L 212.5 302 L 209.5 298 Z " /><path fill="rgb(195,15,27)" stroke="rgb(195,15,27)" stroke-width="1" opacity="0.996078431372549" d="M 302.5 298 L 299.5 302 L 302.5 298 Z " /><path fill="rgb(195,15,27)" stroke="rgb(195,15,27)" stroke-width="1" opacity="0.996078431372549" d="M 214.5 304 L 216.5 307 L 214.5 304 Z " /><path fill="rgb(195,15,27)" stroke="rgb(195,15,27)" stroke-width="1" opacity="0.996078431372549" d="M 0.5 327 L 1 337.5 L 0 337.5 L 0.5 327 Z " /><path fill="rgb(195,15,27)" stroke="rgb(195,15,27)" stroke-width="1" opacity="0.996078431372549" d="M 511.5 327 L 512 337.5 L 511 337.5 L 511.5 327 Z " /><path fill="rgb(195,15,27)" stroke="rgb(195,15,27)" stroke-width="1" opacity="0.996078431372549" d="M 1.5 340 L 2 345.5 L 1 345.5 L 1.5 340 Z " /><path fill="rgb(195,15,27)" stroke="rgb(195,15,27)" stroke-width="1" opacity="0.996078431372549" d="M 510.5 340 L 511 345.5 L 510 345.5 L 510.5 340 Z " /><path fill="rgb(195,15,27)" stroke="rgb(195,15,27)" stroke-width="1" opacity="0.996078431372549" d="M 2.5 347 L 7 367.5 L 6 367.5 L 2 351.5 L 2.5 347 Z " /><path fill="rgb(195,15,27)" stroke="rgb(195,15,27)" stroke-width="1" opacity="0.996078431372549" d="M 509.5 347 L 510 351.5 L 505.5 368 L 505 365.5 L 509.5 347 Z " /><path fill="rgb(195,15,27)" stroke="rgb(195,15,27)" stroke-width="1" opacity="0.996078431372549" d="M 7.5 369 Q 26 426 66.5 461 Q 97.3 490.2 143 504.5 L 140.5 505 Q 82.4 485.1 47 442.5 Q 33.5 427 23 408.5 L 10 380.5 L 7 371.5 L 7.5 369 Z " /><path fill="rgb(195,15,27)" stroke="rgb(195,15,27)" stroke-width="1" opacity="0.996078431372549" d="M 504.5 369 L 505 371.5 Q 485.1 429.6 442.5 465 Q 412.9 491.9 369.5 505 L 369.5 504 L 392.5 496 L 416.5 483 Q 441.5 467 461 445.5 Q 490.2 414.7 504.5 369 Z " /><path fill="rgb(195,15,27)" stroke="rgb(195,15,27)" stroke-width="1" opacity="0.996078431372549" d="M 274.5 372 L 275 375.5 L 274 375.5 L 274.5 372 Z " /><path fill="rgb(195,15,27)" stroke="rgb(195,15,27)" stroke-width="1" opacity="0.996078431372549" d="M 237.5 374 L 238 376.5 L 237 376.5 L 237.5 374 Z " /><path fill="rgb(195,15,27)" stroke="rgb(195,15,27)" stroke-width="1" opacity="0.996078431372549" d="M 144.5 505 L 165 509.5 L 160.5 510 L 144.5 506 L 144.5 505 Z " /><path fill="rgb(195,15,27)" stroke="rgb(195,15,27)" stroke-width="1" opacity="0.996078431372549" d="M 365.5 505 L 368 505.5 Q 359.4 509.4 347.5 510 L 347.5 509 Q 358.2 508.7 365.5 505 Z " /><path fill="rgb(195,15,27)" stroke="rgb(195,15,27)" stroke-width="1" opacity="0.996078431372549" d="M 166.5 510 L 172 510.5 L 166.5 511 L 166.5 510 Z " /><path fill="rgb(195,15,27)" stroke="rgb(195,15,27)" stroke-width="1" opacity="0.996078431372549" d="M 340.5 510 L 346 510.5 L 340.5 511 L 340.5 510 Z " /><path fill="rgb(195,15,27)" stroke="rgb(195,15,27)" stroke-width="1" opacity="0.996078431372549" d="M 174.5 511 L 185 511.5 L 174.5 512 L 174.5 511 Z " /><path fill="rgb(195,15,27)" stroke="rgb(195,15,27)" stroke-width="1" opacity="0.996078431372549" d="M 327.5 511 L 338 511.5 L 327.5 512 L 327.5 511 Z " /><path fill="rgb(0,0,0)" stroke="rgb(0,0,0)" stroke-width="1" opacity="0" d="M 0 0 L 174 0.5 L 160.5 2 L 140.5 7 Q 120.3 13.3 103.5 23 Q 70.8 41.8 47 69.5 Q 27.1 92.1 14 121.5 L 5 147.5 L 0.5 174 L 0 0 Z " /><path fill="rgb(0,0,0)" stroke="rgb(0,0,0)" stroke-width="1" opacity="0" d="M 338.5 0 L 512 0 L 512 173.5 L 511 173.5 L 510 160.5 L 505 140.5 Q 498.7 120.3 489 103.5 Q 470.2 70.8 442.5 47 Q 419.9 27.1 390.5 14 L 364.5 5 L 345.5 1 L 338.5 1 L 338.5 0 Z " /><path fill="rgb(0,0,0)" stroke="rgb(0,0,0)" stroke-width="1" opacity="0" d="M 0.5 338 L 2 351.5 L 7 371.5 Q 13.3 391.7 23 408.5 Q 41.8 441.2 69.5 465 Q 92.1 484.9 121.5 498 L 147.5 507 L 174 511.5 L 0 512 L 0.5 338 Z " /><path fill="rgb(0,0,0)" stroke="rgb(0,0,0)" stroke-width="1" opacity="0" d="M 511.5 338 L 512 512 L 338 511.5 L 351.5 510 L 371.5 505 Q 391.7 498.7 408.5 489 Q 441.2 470.2 465 442.5 Q 484.9 419.9 498 390.5 L 507 364.5 L 511.5 338 Z " /><path fill="rgb(196,15,27)" stroke="rgb(196,15,27)" stroke-width="1" opacity="1" d="M 185.5 0 L 326.5 0 L 327.5 1 L 339.5 1 L 356.5 4 Q 387.7 11.3 411.5 26 Q 439.7 42.8 461 66.5 Q 482 89.5 496 119.5 L 505 143.5 L 510 165.5 L 511 184.5 L 512 185.5 L 512 326.5 L 511 327.5 L 511 339.5 L 508 356.5 L 505 368.5 L 496 392.5 Q 477 433 445.5 461 Q 422.5 482 392.5 496 L 368.5 505 L 346.5 510 L 327.5 511 L 326.5 512 L 185.5 512 L 184.5 511 L 172.5 511 L 155.5 508 L 143.5 505 L 119.5 496 Q 79 477 51 445.5 Q 30 422.5 16 392.5 L 7 368.5 L 2 346.5 L 1 327.5 L 0 326.5 L 0 185.5 L 1 184.5 L 1 172.5 L 4 155.5 L 7 143.5 L 16 119.5 Q 35 79 66.5 51 Q 89.5 30 119.5 16 Q 136 8.5 155.5 4 L 172.5 1 L 184.5 1 L 185.5 0 Z M 255 53 L 253 54 L 248 63 L 248 68 L 246 74 L 242 112 L 233 164 L 223 195 L 215 208 L 212 210 L 209 214 L 194 223 L 175 230 L 173 229 Q 172 232 168 231 L 166 231 L 163 233 Q 154 233 149 236 L 147 235 L 143 237 L 132 238 L 131 239 L 128 238 L 123 240 L 116 240 L 109 242 L 107 241 L 94 244 L 92 243 L 87 245 L 83 244 L 78 246 L 65 247 L 56 250 L 52 255 L 53 260 L 59 263 L 77 266 L 79 266 L 101 269 L 103 269 L 130 273 L 132 273 L 136 274 L 138 274 L 164 279 Q 165 282 167 280 L 190 287 Q 191 290 193 288 L 206 295 Q 222 308 228 331 L 236 364 L 237 377 L 240 387 L 241 402 L 241 404 L 243 409 L 248 450 L 248 452 L 251 457 Q 252 460 259 459 L 262 454 Q 265 452 263 451 L 265 445 L 265 438 L 267 431 L 269 413 L 269 411 L 271 398 L 271 396 L 272 391 L 272 389 L 273 383 L 273 381 Q 276 377 275 371 L 275 369 L 280 344 L 284 331 Q 287 329 285 328 L 296 306 Q 303 295 317 290 L 319 290 L 322 288 L 324 288 L 331 284 L 345 280 L 347 281 L 349 279 L 363 276 L 365 277 L 368 275 L 370 276 L 374 274 L 376 275 L 386 272 L 390 273 L 395 271 L 408 270 L 409 269 L 411 270 L 416 268 L 451 264 L 459 260 L 460 257 L 459 253 L 452 248 L 432 245 L 430 245 L 423 244 L 421 244 L 378 238 L 376 238 L 342 231 L 327 226 Q 325 222 324 225 L 313 220 L 303 213 L 301 211 L 296 207 L 295 204 L 292 201 L 293 200 L 291 196 L 288 193 L 289 192 L 287 190 L 281 172 L 275 145 L 276 143 L 273 133 L 274 131 L 272 126 L 271 112 L 269 104 L 270 101 L 268 97 L 268 89 L 267 88 L 267 81 L 266 80 L 264 63 L 259 53 L 257 54 L 255 53 Z M 119 97 L 118 98 Q 114 97 115 100 L 114 99 L 112 102 L 109 104 Q 106 105 108 107 L 107 107 L 107 109 L 105 109 L 104 114 L 105 123 Q 108 124 107 126 Q 109 125 108 129 L 112 132 L 113 131 L 115 134 L 117 133 L 117 135 L 121 136 L 128 136 L 128 135 L 130 135 Q 132 136 131 134 L 133 134 L 133 133 L 135 133 L 140 128 L 140 126 Q 142 127 141 125 L 143 121 L 142 118 L 143 114 Q 144 110 142 111 L 142 110 Q 143 107 141 108 L 141 107 L 139 104 Q 138 101 137 103 L 137 102 Q 136 99 135 101 L 134 100 L 133 100 L 132 99 L 131 99 L 130 97 L 126 98 L 119 97 Z " /></svg>